<svg width="206" height="22" viewBox="0 0 206 22" fill="none" xmlns="http://www.w3.org/2000/svg">
<g clip-path="url(#clip0_60_2785)">
<path d="M7.19127 1.92329H3.26219L5.22631 5.52378L4.21244 7.38384L0.219727 0.0632324H8.20515L7.19127 1.92329Z" fill="url(#paint0_linear_60_2785)"/>
<path d="M10.2344 14.7035L12.1508 18.2171L14.0672 14.7035H16.0966L12.1508 21.9364L8.20581 14.7035H10.2344Z" fill="url(#paint1_linear_60_2785)"/>
<path d="M19.0746 5.52378L21.0387 1.92329H17.1104L16.0966 0.0632324H24.082L20.0893 7.38384L19.0746 5.52378Z" fill="url(#paint2_linear_60_2785)"/>
</g>
<path d="M205.78 21.9365H203.374L195.952 12.006L188.5 21.9365H186.196L194.771 10.577L186.852 0.0632324H189.259L196.068 9.16252L202.849 0.0632324H205.168L197.235 10.5916L205.78 21.9365Z" fill="white"/>
<path d="M178.827 21.9365V0.0632324H180.752V21.9365H178.827Z" fill="white"/>
<path d="M166.427 21.9365H164.502V1.78393H157.284V0.0632324H173.66V1.78393H166.427V21.9365Z" fill="white"/>
<path d="M136.951 21.9365H134.924L143.994 0.0632324H146.123L155.193 21.9365H153.152L150.571 15.6224H139.547L136.951 21.9365ZM140.232 13.9017H149.886L145.059 2.1339L140.232 13.9017Z" fill="white"/>
<path d="M129.611 21.9365H127.686V2.70261L119.695 18.2618H117.901L109.94 2.7901V21.9365H108.015V0.0632324H110.537L118.806 16.264L127.045 0.0632324H129.611V21.9365Z" fill="white"/>
<path d="M102.497 21.9365H85.7863V18.6118L96.4167 3.98584H86.3695V0.0632324H102.308V3.53379L91.7941 18.0139H102.497V21.9365Z" fill="white"/>
<path d="M75.7819 21.9364V10.0056H80.2758V21.9364H75.7819Z" fill="white"/>
<path d="M76.7596 4.51292L78.7159 1.57896H74.8032L73.7933 0.0632324H81.7472L77.7703 6.02865L76.7596 4.51292Z" fill="url(#paint3_linear_60_2785)"/>
<path d="M71.9226 21.9365H66.95L62.3566 14.033H58.1861V21.9365H53.6948V0.0632324H62.5608C64.3204 0.0632324 65.8272 0.340294 67.0813 0.894417C68.3353 1.44854 69.2929 2.25056 69.954 3.30048C70.6247 4.34067 70.9601 5.58988 70.9601 7.0481C70.9601 8.54521 70.6053 9.82358 69.8956 10.8832C69.1957 11.9331 68.1944 12.7206 66.8917 13.2455L71.9226 21.9365ZM58.1861 10.4603H62.2254C63.5572 10.4603 64.578 10.1833 65.2877 9.62915C66.0071 9.0653 66.3667 8.26328 66.3667 7.22309C66.3667 6.18289 66.0071 5.38573 65.2877 4.83161C64.578 4.26776 63.5572 3.98584 62.2254 3.98584H58.1861V10.4603Z" fill="white"/>
<path d="M32.0352 21.9365V0.0632324H39.5158C41.3532 0.0632324 42.9378 0.364598 44.2696 0.967328C45.6112 1.56034 46.6417 2.41096 47.361 3.51921C48.0804 4.61774 48.4401 5.93013 48.4401 7.4564C48.4401 8.98267 48.0804 10.3048 47.361 11.4228C46.6417 12.531 45.616 13.3865 44.2842 13.9892C42.9621 14.592 41.3872 14.8933 39.5596 14.8933H36.5265V21.9365H32.0352ZM36.5265 10.9561H39.0929C40.6192 10.9561 41.7906 10.6548 42.6072 10.052C43.4336 9.43958 43.8467 8.57437 43.8467 7.4564C43.8467 6.35788 43.4336 5.50725 42.6072 4.90452C41.7906 4.29207 40.6192 3.98584 39.0929 3.98584H36.5265V10.9561Z" fill="white"/>
<defs>
<linearGradient id="paint0_linear_60_2785" x1="4.21244" y1="0.0632324" x2="4.21244" y2="7.38384" gradientUnits="userSpaceOnUse">
<stop stop-color="#9F20FF"/>
<stop offset="1" stop-color="#6B48E3"/>
</linearGradient>
<linearGradient id="paint1_linear_60_2785" x1="12.1512" y1="14.7035" x2="12.1512" y2="21.9364" gradientUnits="userSpaceOnUse">
<stop stop-color="#9F20FF"/>
<stop offset="1" stop-color="#6B48E3"/>
</linearGradient>
<linearGradient id="paint2_linear_60_2785" x1="20.0893" y1="0.0632324" x2="20.0893" y2="7.38384" gradientUnits="userSpaceOnUse">
<stop stop-color="#9F20FF"/>
<stop offset="1" stop-color="#6B48E3"/>
</linearGradient>
<linearGradient id="paint3_linear_60_2785" x1="77.7703" y1="0.0632324" x2="77.7703" y2="6.02865" gradientUnits="userSpaceOnUse">
<stop stop-color="#9F20FF"/>
<stop offset="1" stop-color="#6B48E3"/>
</linearGradient>
<clipPath id="clip0_60_2785">
<rect width="23.8617" height="21.8732" fill="white" transform="translate(0.219727 0.0632324)"/>
</clipPath>
</defs>
</svg>
