<svg width="144" height="18" viewBox="0 0 144 18" fill="none" xmlns="http://www.w3.org/2000/svg">
<g clip-path="url(#clip0_87_985)">
<path d="M4.93604 2.91041H2.25115L3.59331 5.32603L2.90049 6.57397L0.172119 1.66248H5.62886L4.93604 2.91041Z" fill="url(#paint0_linear_87_985)"/>
<path d="M7.01512 11.4849L8.32467 13.8422L9.63422 11.4849H11.021L8.32467 16.3375L5.62891 11.4849H7.01512Z" fill="url(#paint1_linear_87_985)"/>
<path d="M13.056 5.32603L14.3981 2.91041H11.7138L11.021 1.66248H16.4777L13.7494 6.57397L13.056 5.32603Z" fill="url(#paint2_linear_87_985)"/>
</g>
<path d="M24.3597 17.5001V0.780539H30.0778C31.4823 0.780539 32.6935 1.0109 33.7116 1.47161C34.737 1.9249 35.5247 2.57511 36.0746 3.42223C36.6245 4.26193 36.8994 5.2651 36.8994 6.43176C36.8994 7.59841 36.6245 8.60902 36.0746 9.46358C35.5247 10.3107 34.7407 10.9646 33.7227 11.4253C32.7121 11.8861 31.5083 12.1164 30.1113 12.1164H27.7928V17.5001H24.3597ZM27.7928 9.10689H29.7546C30.9212 9.10689 31.8167 8.87653 32.4409 8.41582C33.0725 7.94767 33.3883 7.28631 33.3883 6.43176C33.3883 5.59206 33.0725 4.94186 32.4409 4.48114C31.8167 4.01299 30.9212 3.77892 29.7546 3.77892H27.7928V9.10689ZM52.7946 17.5001H48.9937L45.4826 11.4588H42.2947V17.5001H38.8616V0.780539H45.6386C46.9836 0.780539 48.1354 0.99232 49.094 1.41588C50.0526 1.83945 50.7846 2.4525 51.2899 3.25504C51.8026 4.05015 52.059 5.00502 52.059 6.11966C52.059 7.26402 51.7877 8.24119 51.2453 9.05116C50.7102 9.8537 49.9449 10.4556 48.9491 10.8569L52.7946 17.5001ZM42.2947 8.72791H45.3823C46.4003 8.72791 47.1806 8.51613 47.723 8.09257C48.2729 7.66158 48.5478 7.04852 48.5478 6.25342C48.5478 5.45831 48.2729 4.84897 47.723 4.42541C47.1806 3.99441 46.4003 3.77892 45.3823 3.77892H42.2947V8.72791ZM54.1661 17.5001V0.780539H57.5992V17.5001H54.1661ZM72.0565 17.5001H59.2827V14.9587L67.4084 3.77892H59.7286V0.780539H71.9116V3.43338L63.875 14.5017H72.0565V17.5001ZM91.6077 17.5001H88.1746V5.68495L83.9947 14.6912H81.3419L77.1731 5.71839V17.5001H73.74V0.780539H78.0983L82.6683 10.8792L87.2383 0.780539H91.6077V17.5001ZM96.3899 17.5001H92.7896L99.4552 0.780539H103.078L109.732 17.5001H106.132L104.761 13.911H97.7609L96.3899 17.5001ZM98.8867 10.9015H103.646L101.261 4.70407L98.8867 10.9015ZM117.033 17.5001H115.562V2.09581H110.045V0.780539H122.562V2.09581H117.033V17.5001ZM124.457 17.5001V0.780539H125.929V17.5001H124.457ZM143.005 17.5001H141.166L135.493 9.90943L129.797 17.5001H128.036L134.59 8.81709L128.537 0.780539H130.377L135.582 7.73589L140.765 0.780539H142.537L136.474 8.82823L143.005 17.5001Z" fill="#281B48"/>
<defs>
<linearGradient id="paint0_linear_87_985" x1="2.90049" y1="1.66248" x2="2.90049" y2="6.57397" gradientUnits="userSpaceOnUse">
<stop stop-color="#9F20FF"/>
<stop offset="1" stop-color="#6B48E3"/>
</linearGradient>
<linearGradient id="paint1_linear_87_985" x1="8.32495" y1="11.4849" x2="8.32495" y2="16.3375" gradientUnits="userSpaceOnUse">
<stop stop-color="#9F20FF"/>
<stop offset="1" stop-color="#6B48E3"/>
</linearGradient>
<linearGradient id="paint2_linear_87_985" x1="13.7494" y1="1.66248" x2="13.7494" y2="6.57397" gradientUnits="userSpaceOnUse">
<stop stop-color="#9F20FF"/>
<stop offset="1" stop-color="#6B48E3"/>
</linearGradient>
<clipPath id="clip0_87_985">
<rect width="16.3056" height="14.675" fill="white" transform="translate(0.172119 1.66248)"/>
</clipPath>
</defs>
</svg>
