<svg width="16" height="16" viewBox="0 0 16 16" fill="none" xmlns="http://www.w3.org/2000/svg">
<g id="Group">
<path id="Path" fill-rule="evenodd" clip-rule="evenodd" d="M7.65338 9.50735C7.66136 9.57599 7.66581 9.645 7.66671 9.7141V9.72077C7.66589 10.3547 7.23447 10.907 6.61959 11.0614L5.61915 11.3082C5.35827 11.3758 5.08107 11.3003 4.8905 11.1098C4.69993 10.9192 4.62444 10.642 4.69208 10.3811L4.93886 9.37399C5.09385 8.76052 5.6467 8.33143 6.27944 8.3335H6.28611C6.35521 8.33441 6.42422 8.33886 6.49286 8.34684C7.09051 8.44092 7.55929 8.9097 7.65338 9.50735Z" stroke="#52525B" stroke-linecap="round" stroke-linejoin="round"/>
<path id="Path_2" d="M7.65341 9.5065C8.5038 9.24697 9.26995 8.76612 9.87341 8.11316L9.87252 8.1145C11.1118 6.87548 11.6714 5.4261 11.1226 4.87731C10.5738 4.32852 9.12445 4.88816 7.88533 6.12728L7.88674 6.1265C7.23379 6.72996 6.75293 7.49611 6.49341 8.3465" stroke="#52525B" stroke-linecap="round" stroke-linejoin="round"/>
<rect id="Rectangle" x="2" y="2" width="12" height="12" rx="2" stroke="#52525B" stroke-linecap="round" stroke-linejoin="round"/>
</g>
</svg>
