<svg width="16" height="16" viewBox="0 0 16 16" fill="none" xmlns="http://www.w3.org/2000/svg">
<g id="Group">
<rect id="Rectangle" x="1.99731" y="1.99731" width="12.005" height="12.005" rx="2" stroke="#52525B" stroke-linecap="round" stroke-linejoin="round"/>
<path id="Path" d="M7.41626 8.00315H10.2014" stroke="#52525B" stroke-linecap="round" stroke-linejoin="round"/>
<path id="Path_2" d="M7.41626 10.6643L11.4179 10.6677" stroke="#52525B" stroke-linecap="round" stroke-linejoin="round"/>
<path id="Path_3" d="M7.41626 5.32883H11.4179" stroke="#52525B" stroke-linecap="round" stroke-linejoin="round"/>
<path id="Path_4" d="M4.74784 5.16552C4.65585 5.16589 4.58153 5.2407 4.58178 5.3327C4.58202 5.4247 4.65673 5.49911 4.74873 5.49899C4.84073 5.49887 4.91525 5.42425 4.91525 5.33225C4.91543 5.28786 4.89783 5.24525 4.86637 5.21392C4.83492 5.18259 4.79223 5.16516 4.74784 5.16552" stroke="#52525B" stroke-linecap="round" stroke-linejoin="round"/>
<path id="Path_5" d="M4.74784 7.83324C4.65585 7.83361 4.58153 7.90842 4.58178 8.00042C4.58202 8.09242 4.65673 8.16684 4.74873 8.16671C4.84073 8.16659 4.91525 8.09198 4.91525 7.99998C4.91543 7.95559 4.89783 7.91297 4.86637 7.88164C4.83492 7.85032 4.79223 7.83289 4.74784 7.83324" stroke="#52525B" stroke-linecap="round" stroke-linejoin="round"/>
<path id="Path_6" d="M4.74784 10.501C4.65585 10.5013 4.58153 10.5761 4.58178 10.6681C4.58202 10.7601 4.65673 10.8346 4.74873 10.8344C4.84073 10.8343 4.91525 10.7597 4.91525 10.6677C4.91543 10.6233 4.89783 10.5807 4.86637 10.5494C4.83492 10.518 4.79223 10.5006 4.74784 10.501" stroke="#52525B" stroke-linecap="round" stroke-linejoin="round"/>
</g>
</svg>
