<svg width="16" height="16" viewBox="0 0 16 16" fill="none" xmlns="http://www.w3.org/2000/svg">
<g id="Group">
<g id="Group_2">
<path id="Path" d="M5.79932 11.4957L8.19932 9.0957" stroke="#52525B" stroke-linecap="round" stroke-linejoin="round"/>
<path id="Path_2" d="M8.30802 11.4119C8.36202 11.4659 8.36202 11.5525 8.30802 11.6059C8.25402 11.6599 8.16735 11.6599 8.11402 11.6059C8.06002 11.5519 8.06002 11.4652 8.11402 11.4119C8.16735 11.3585 8.25469 11.3585 8.30802 11.4119" stroke="#52525B" stroke-linecap="round" stroke-linejoin="round"/>
<path id="Path_3" d="M5.88529 8.9867C5.93929 9.0407 5.93929 9.12736 5.88529 9.1807C5.83129 9.2347 5.74462 9.2347 5.69129 9.1807C5.63795 9.1267 5.63729 9.04003 5.69129 8.9867C5.74529 8.93336 5.83195 8.9327 5.88529 8.9867" stroke="#52525B" stroke-linecap="round" stroke-linejoin="round"/>
<path id="Path_4" fill-rule="evenodd" clip-rule="evenodd" d="M10.6667 13.9998H3.33333C2.59667 13.9998 2 13.4032 2 12.6665V7.99984C2 7.26317 2.59667 6.6665 3.33333 6.6665H10.6667C11.4033 6.6665 12 7.26317 12 7.99984V12.6665C12 13.4032 11.4033 13.9998 10.6667 13.9998Z" stroke="#52525B" stroke-linecap="round" stroke-linejoin="round"/>
<path id="Path_5" d="M4 6.6665V3.99984C4 3.26317 4.59667 2.6665 5.33333 2.6665H12.6667C13.4033 2.6665 14 3.26317 14 3.99984V8.6665C14 9.40317 13.4033 9.99984 12.6667 9.99984H12" stroke="#52525B" stroke-linecap="round" stroke-linejoin="round"/>
</g>
</g>
</svg>
