<svg viewBox="0 0 24 24" fill="none" xmlns="http://www.w3.org/2000/svg">
  <path d="M9.9 4.24A9.12 9.12 0 0 1 12 4c7 0 10 7 10 7a13.83 13.83 0 0 1-1.67 2.68" stroke="#323232" stroke-width="1.5" stroke-linecap="round" stroke-linejoin="round"/>
  <path d="M17.94 14.74a6.05 6.05 0 0 1-2.22 1.26c-2.31.69-4.27-.47-4.97-2.78a5.56 5.56 0 0 1-.14-3.38" stroke="#323232" stroke-width="1.5" stroke-linecap="round" stroke-linejoin="round"/>
  <path d="M2 2l20 20" stroke="#323232" stroke-width="1.5" stroke-linecap="round" stroke-linejoin="round"/>
  <path d="M6.71 6.7A13.8 13.8 0 0 0 2 11s3 7 10 7a9.38 9.38 0 0 0 4.65-1.08" stroke="#323232" stroke-width="1.5" stroke-linecap="round" stroke-linejoin="round"/>
</svg>