<svg width="16" height="17" viewBox="0 0 16 17" fill="none" xmlns="http://www.w3.org/2000/svg">
<g id="Group">
<path id="Path" fill-rule="evenodd" clip-rule="evenodd" d="M4.99733 2.5H11.0033C12.658 2.5 14 3.84133 14 5.49733V11.5033C14 13.158 12.6587 14.5 11.0027 14.5H4.99733C3.342 14.5 2 13.1587 2 11.5027V5.49733C2 3.842 3.34133 2.5 4.99733 2.5V2.5Z" stroke="#82759D" stroke-width="1.5" stroke-linecap="round" stroke-linejoin="round"/>
<path id="Path_2" d="M11.2993 4.97528C11.1753 4.97594 11.0746 5.07661 11.0746 5.20061C11.0746 5.32461 11.176 5.42528 11.3 5.42528C11.424 5.42528 11.5246 5.32461 11.5246 5.20061C11.5253 5.07594 11.424 4.97528 11.2993 4.97528" stroke="#82759D" stroke-width="1.5" stroke-linecap="round" stroke-linejoin="round"/>
<path id="Path_3" d="M9.69716 6.80292C10.6344 7.74018 10.6344 9.25977 9.69716 10.197C8.7599 11.1343 7.2403 11.1343 6.30304 10.197C5.36578 9.25977 5.36578 7.74018 6.30304 6.80292C7.2403 5.86566 8.7599 5.86566 9.69716 6.80292" stroke="#82759D" stroke-width="1.5" stroke-linecap="round" stroke-linejoin="round"/>
</g>
</svg>
