<svg width="16" height="16" viewBox="0 0 16 16" fill="none" xmlns="http://www.w3.org/2000/svg">
<g id="Group">
<g id="Group_2">
<path id="Path" d="M9.41465 6.5865C10.1953 7.36717 10.1953 8.6345 9.41465 9.4165C8.63398 10.1972 7.36665 10.1972 6.58465 9.4165C5.80398 8.63583 5.80398 7.3685 6.58465 6.5865C7.36665 5.8045 8.63331 5.8045 9.41465 6.5865" stroke="#383C51" stroke-width="1.5" stroke-linecap="round" stroke-linejoin="round"/>
<path id="Path_2" fill-rule="evenodd" clip-rule="evenodd" d="M2 7.99992C2 7.56059 2.10133 7.12592 2.29733 6.72525V6.72525C3.30733 4.66059 5.53933 3.33325 8 3.33325C10.4607 3.33325 12.6927 4.66059 13.7027 6.72525V6.72525C13.8987 7.12592 14 7.56059 14 7.99992C14 8.43925 13.8987 8.87392 13.7027 9.27459V9.27459C12.6927 11.3393 10.4607 12.6666 8 12.6666C5.53933 12.6666 3.30733 11.3393 2.29733 9.27459V9.27459C2.10133 8.87392 2 8.43925 2 7.99992Z" stroke="#383C51" stroke-width="1.5" stroke-linecap="round" stroke-linejoin="round"/>
</g>
</g>
</svg>
