<svg width="48" height="48" viewBox="0 0 48 48" fill="none" xmlns="http://www.w3.org/2000/svg">
<path fill-rule="evenodd" clip-rule="evenodd" d="M15 23.2909C15 25.9739 16.42 28.3359 18.599 29.8249C18.598 30.6799 18.6 31.8319 18.6 33.0409L22.131 31.2939C22.735 31.4099 23.359 31.4729 24 31.4729C28.952 31.4729 33 27.8299 33 23.2909C33 18.7519 28.952 15.1089 24 15.1089C19.048 15.1089 15 18.7519 15 23.2909Z" fill="#D1C9DE" stroke="#D1C9DE" stroke-width="1.5" stroke-linecap="round" stroke-linejoin="round"/>
<path d="M23.899 24.328V24.121C23.899 23.443 24.318 23.076 24.738 22.794C25.148 22.518 25.559 22.158 25.559 21.494C25.559 20.577 24.816 19.835 23.9 19.835C22.984 19.835 22.24 20.576 22.24 21.493" stroke="#1E1A37" stroke-width="1.5" stroke-linecap="round" stroke-linejoin="round"/>
<path d="M23.8979 26.6669C23.8149 26.6669 23.7479 26.7339 23.7489 26.8169C23.7489 26.8999 23.8159 26.9669 23.8989 26.9669C23.9819 26.9669 24.0489 26.8999 24.0489 26.8169C24.0489 26.7339 23.9829 26.6669 23.8979 26.6669" stroke="#1E1A37" stroke-width="1.5" stroke-linecap="round" stroke-linejoin="round"/>
</svg>
