<svg width="48" height="48" viewBox="0 0 48 48" fill="none" xmlns="http://www.w3.org/2000/svg">
<path fill-rule="evenodd" clip-rule="evenodd" d="M30 33H18C16.343 33 15 31.657 15 30V18C15 16.343 16.343 15 18 15H30C31.657 15 33 16.343 33 18V30C33 31.657 31.657 33 30 33Z" fill="#D1C9DE" stroke="#D1C9DE" stroke-width="1.5" stroke-linecap="round" stroke-linejoin="round"/>
<path fill-rule="evenodd" clip-rule="evenodd" d="M19.6599 27.3C19.3839 27.3 19.1599 27.076 19.1599 26.8V25.357C19.1599 25.195 19.2379 25.044 19.3699 24.95L20.6999 24V21.408V21.408C20.6999 19.802 22.0019 18.5 23.6079 18.5H24.3929C25.9989 18.5 27.3009 19.802 27.3009 21.408V21.408V24L28.6319 24.95C28.7629 25.044 28.8409 25.195 28.8409 25.356V26.8C28.8409 27.076 28.6169 27.3 28.3409 27.3H19.6599Z" stroke="#363636" stroke-width="1.5" stroke-linecap="round" stroke-linejoin="round"/>
<path fill-rule="evenodd" clip-rule="evenodd" d="M22.8999 29.5H25.0999H22.8999V29.5Z" stroke="#363636" stroke-width="1.5" stroke-linecap="round" stroke-linejoin="round"/>
</svg>
