<svg width="48" height="48" viewBox="0 0 48 48" fill="none" xmlns="http://www.w3.org/2000/svg">
<path d="M0 8C0 3.58172 3.58172 0 8 0H40C44.4183 0 48 3.58172 48 8V40C48 44.4183 44.4183 48 40 48H8C3.58172 48 0 44.4183 0 40V8Z" fill="#413653"/>
<path d="M0.5 8C0.5 3.85787 3.85786 0.5 8 0.5H40C44.1421 0.5 47.5 3.85786 47.5 8V40C47.5 44.1421 44.1421 47.5 40 47.5H8C3.85787 47.5 0.5 44.1421 0.5 40V8Z" stroke="#8037EE" stroke-opacity="0.2"/>
<g filter="url(#filter0_d_412_7221)">
<path fill-rule="evenodd" clip-rule="evenodd" d="M17 15H31C32.105 15 33 15.895 33 17V31C33 32.105 32.105 33 31 33H17C15.895 33 15 32.105 15 31V17C15 15.895 15.895 15 17 15Z" fill="url(#paint0_linear_412_7221)" stroke="url(#paint1_linear_412_7221)" stroke-width="1.5" stroke-linecap="round" stroke-linejoin="round"/>
<path d="M20 25V29" stroke="white" stroke-width="1.5" stroke-linecap="round" stroke-linejoin="round"/>
<path d="M24 19V29" stroke="white" stroke-width="1.5" stroke-linecap="round" stroke-linejoin="round"/>
<path d="M28 22V29" stroke="white" stroke-width="1.5" stroke-linecap="round" stroke-linejoin="round"/>
</g>
<defs>
<filter id="filter0_d_412_7221" x="4" y="8" width="40" height="40" filterUnits="userSpaceOnUse" color-interpolation-filters="sRGB">
<feFlood flood-opacity="0" result="BackgroundImageFix"/>
<feColorMatrix in="SourceAlpha" type="matrix" values="0 0 0 0 0 0 0 0 0 0 0 0 0 0 0 0 0 0 127 0" result="hardAlpha"/>
<feOffset dy="4"/>
<feGaussianBlur stdDeviation="4"/>
<feColorMatrix type="matrix" values="0 0 0 0 0 0 0 0 0 0 0 0 0 0 0 0 0 0 0.1 0"/>
<feBlend mode="normal" in2="BackgroundImageFix" result="effect1_dropShadow_412_7221"/>
<feBlend mode="normal" in="SourceGraphic" in2="effect1_dropShadow_412_7221" result="shape"/>
</filter>
<linearGradient id="paint0_linear_412_7221" x1="24" y1="-71.3182" x2="24" y2="83.3182" gradientUnits="userSpaceOnUse">
<stop stop-color="#9F20FF"/>
<stop offset="1" stop-color="#6B48E3"/>
</linearGradient>
<linearGradient id="paint1_linear_412_7221" x1="24" y1="-71.3182" x2="24" y2="83.3182" gradientUnits="userSpaceOnUse">
<stop stop-color="#9F20FF"/>
<stop offset="1" stop-color="#6B48E3"/>
</linearGradient>
</defs>
</svg>
