<svg width="40" height="40" viewBox="0 0 40 40" fill="none" xmlns="http://www.w3.org/2000/svg">
<g clip-path="url(#clip0_412_7270)">
<rect width="40" height="40" rx="8" fill="white"/>
<g clip-path="url(#clip1_412_7270)">
<rect width="41" height="41" rx="5.33333" fill="url(#paint0_linear_412_7270)"/>
<g filter="url(#filter0_f_412_7270)">
<circle cx="24" cy="28" r="16" fill="white" fill-opacity="0.21"/>
</g>
<g filter="url(#filter1_f_412_7270)">
<circle cx="11.3334" cy="11.3334" r="20.6667" fill="white" fill-opacity="0.21"/>
</g>
</g>
<path d="M17.3239 17.7102C17.2784 17.2519 17.0833 16.8958 16.7386 16.642C16.3939 16.3883 15.9261 16.2614 15.3352 16.2614C14.9337 16.2614 14.5947 16.3182 14.3182 16.4318C14.0417 16.5417 13.8295 16.6951 13.6818 16.892C13.5379 17.089 13.4659 17.3125 13.4659 17.5625C13.4583 17.7708 13.5019 17.9527 13.5966 18.108C13.6951 18.2633 13.8295 18.3977 14 18.5114C14.1705 18.6212 14.3674 18.7178 14.5909 18.8011C14.8144 18.8807 15.053 18.9489 15.3068 19.0057L16.3523 19.2557C16.8598 19.3693 17.3258 19.5208 17.75 19.7102C18.1742 19.8996 18.5417 20.1326 18.8523 20.4091C19.1629 20.6856 19.4034 21.0114 19.5739 21.3864C19.7481 21.7614 19.8371 22.1913 19.8409 22.6761C19.8371 23.3883 19.6553 24.0057 19.2955 24.5284C18.9394 25.0473 18.4242 25.4508 17.75 25.7386C17.0795 26.0227 16.2708 26.1648 15.3239 26.1648C14.3845 26.1648 13.5663 26.0208 12.8693 25.733C12.1761 25.4451 11.6345 25.0189 11.2443 24.4545C10.858 23.8864 10.6553 23.1837 10.6364 22.3466H13.017C13.0436 22.7367 13.1553 23.0625 13.3523 23.3239C13.553 23.5814 13.8201 23.7765 14.1534 23.9091C14.4905 24.0379 14.8712 24.1023 15.2955 24.1023C15.7121 24.1023 16.0739 24.0417 16.3807 23.9205C16.6913 23.7992 16.9318 23.6307 17.1023 23.4148C17.2727 23.1989 17.358 22.9508 17.358 22.6705C17.358 22.4091 17.2803 22.1894 17.125 22.0114C16.9735 21.8333 16.75 21.6818 16.4545 21.5568C16.1629 21.4318 15.8049 21.3182 15.3807 21.2159L14.1136 20.8977C13.1326 20.6591 12.358 20.286 11.7898 19.7784C11.2216 19.2708 10.9394 18.5871 10.9432 17.7273C10.9394 17.0227 11.1269 16.4072 11.5057 15.8807C11.8883 15.3542 12.4129 14.9432 13.0795 14.6477C13.7462 14.3523 14.5038 14.2045 15.3523 14.2045C16.2159 14.2045 16.9697 14.3523 17.6136 14.6477C18.2614 14.9432 18.7652 15.3542 19.125 15.8807C19.4848 16.4072 19.6705 17.017 19.6818 17.7102H17.3239ZM23.9389 26.1648C23.3821 26.1648 22.8859 26.0682 22.4503 25.875C22.0147 25.678 21.67 25.3883 21.4162 25.0057C21.1662 24.6193 21.0412 24.1383 21.0412 23.5625C21.0412 23.0777 21.1302 22.6705 21.3082 22.3409C21.4863 22.0114 21.7287 21.7462 22.0355 21.5455C22.3423 21.3447 22.6908 21.1932 23.081 21.0909C23.4749 20.9886 23.8878 20.9167 24.3196 20.875C24.8272 20.822 25.2363 20.7727 25.5469 20.7273C25.8575 20.678 26.0829 20.6061 26.223 20.5114C26.3632 20.4167 26.4332 20.2765 26.4332 20.0909V20.0568C26.4332 19.697 26.3196 19.4186 26.0923 19.2216C25.8688 19.0246 25.5507 18.9261 25.1378 18.9261C24.7022 18.9261 24.3556 19.0227 24.098 19.2159C23.8404 19.4053 23.67 19.6439 23.5866 19.9318L21.348 19.75C21.4616 19.2197 21.6851 18.7614 22.0185 18.375C22.3518 17.9848 22.7817 17.6856 23.3082 17.4773C23.8385 17.2652 24.4522 17.1591 25.1491 17.1591C25.634 17.1591 26.098 17.2159 26.5412 17.3295C26.9882 17.4432 27.384 17.6193 27.7287 17.858C28.0772 18.0966 28.3518 18.4034 28.5526 18.7784C28.7533 19.1496 28.8537 19.5947 28.8537 20.1136V26H26.5582V24.7898H26.4901C26.3499 25.0625 26.1624 25.303 25.9276 25.5114C25.6927 25.7159 25.4105 25.8769 25.081 25.9943C24.7514 26.108 24.3707 26.1648 23.9389 26.1648ZM24.6321 24.4943C24.9882 24.4943 25.3026 24.4242 25.5753 24.2841C25.848 24.1402 26.062 23.947 26.2173 23.7045C26.3726 23.4621 26.4503 23.1875 26.4503 22.8807V21.9545C26.3745 22.0038 26.2704 22.0492 26.1378 22.0909C26.009 22.1288 25.8632 22.1648 25.7003 22.1989C25.5374 22.2292 25.3745 22.2576 25.2116 22.2841C25.0488 22.3068 24.901 22.3277 24.7685 22.3466C24.4844 22.3883 24.2363 22.4545 24.0241 22.5455C23.812 22.6364 23.6473 22.7595 23.5298 22.9148C23.4124 23.0663 23.3537 23.2557 23.3537 23.483C23.3537 23.8125 23.473 24.0644 23.7116 24.2386C23.9541 24.4091 24.2609 24.4943 24.6321 24.4943Z" fill="white"/>
</g>
<defs>
<filter id="filter0_f_412_7270" x="4.66667" y="8.66667" width="38.6667" height="38.6667" filterUnits="userSpaceOnUse" color-interpolation-filters="sRGB">
<feFlood flood-opacity="0" result="BackgroundImageFix"/>
<feBlend mode="normal" in="SourceGraphic" in2="BackgroundImageFix" result="shape"/>
<feGaussianBlur stdDeviation="1.66667" result="effect1_foregroundBlur_412_7270"/>
</filter>
<filter id="filter1_f_412_7270" x="-12.6666" y="-12.6666" width="47.9999" height="47.9999" filterUnits="userSpaceOnUse" color-interpolation-filters="sRGB">
<feFlood flood-opacity="0" result="BackgroundImageFix"/>
<feBlend mode="normal" in="SourceGraphic" in2="BackgroundImageFix" result="shape"/>
<feGaussianBlur stdDeviation="1.66667" result="effect1_foregroundBlur_412_7270"/>
</filter>
<linearGradient id="paint0_linear_412_7270" x1="20.5" y1="0" x2="20.5" y2="41" gradientUnits="userSpaceOnUse">
<stop stop-color="#9F20FF"/>
<stop offset="1" stop-color="#6B48E3"/>
</linearGradient>
<clipPath id="clip0_412_7270">
<rect width="40" height="40" rx="8" fill="white"/>
</clipPath>
<clipPath id="clip1_412_7270">
<rect width="41" height="41" rx="5.33333" fill="white"/>
</clipPath>
</defs>
</svg>
