<svg width="48" height="48" viewBox="0 0 48 48" fill="none" xmlns="http://www.w3.org/2000/svg">
<path fill-rule="evenodd" clip-rule="evenodd" d="M15.9001 27.647L17.2981 27.861C18.3301 28.019 19.0671 28.943 18.9911 29.984L18.8881 31.395C18.8581 31.806 19.0821 32.193 19.4531 32.372L20.4871 32.87C20.8581 33.049 21.3011 32.982 21.6041 32.703L22.6431 31.743C23.4091 31.035 24.5911 31.035 25.3581 31.743L26.3971 32.703C26.7001 32.983 27.1421 33.049 27.5141 32.87L28.5501 32.371C28.9201 32.193 29.1431 31.807 29.1131 31.397L29.0101 29.984C28.9341 28.943 29.6711 28.019 30.7031 27.861L32.1011 27.647C32.5081 27.585 32.8361 27.28 32.9281 26.878L33.1831 25.76C33.2751 25.358 33.1121 24.941 32.7721 24.709L31.6051 23.91C30.7441 23.32 30.4811 22.168 31.0011 21.263L31.7061 20.037C31.9111 19.68 31.8771 19.233 31.6201 18.911L30.9051 18.014C30.6481 17.692 30.2201 17.559 29.8261 17.68L28.4741 18.094C27.4751 18.4 26.4101 17.887 26.0261 16.916L25.5081 15.603C25.3561 15.219 24.9851 14.967 24.5721 14.968L23.4261 14.971C23.0131 14.972 22.6431 15.226 22.4931 15.611L21.9881 16.909C21.6081 17.886 20.5381 18.403 19.5361 18.095L18.1281 17.663C17.7331 17.541 17.3031 17.675 17.0461 17.999L16.3361 18.897C16.0791 19.222 16.0481 19.67 16.2571 20.027L16.9781 21.256C17.5091 22.162 17.2491 23.325 16.3831 23.918L15.2301 24.708C14.8901 24.941 14.7271 25.358 14.8191 25.759L15.0741 26.877C15.1651 27.28 15.4931 27.585 15.9001 27.647Z" fill="#D1C9DE" stroke="#D1C9DE" stroke-width="1.5" stroke-linecap="round" stroke-linejoin="round"/>
<path fill-rule="evenodd" clip-rule="evenodd" d="M25.916 22.084C26.974 23.142 26.974 24.858 25.916 25.916C24.858 26.974 23.142 26.974 22.084 25.916C21.026 24.858 21.026 23.142 22.084 22.084C23.142 21.026 24.858 21.026 25.916 22.084Z" fill="#2E1C52"/>
<path d="M25.916 22.084C26.974 23.142 26.974 24.858 25.916 25.916C24.858 26.974 23.142 26.974 22.084 25.916C21.026 24.858 21.026 23.142 22.084 22.084C23.142 21.026 24.858 21.026 25.916 22.084" stroke="#2E1C52" stroke-width="1.5" stroke-linecap="round" stroke-linejoin="round"/>
</svg>
